<svg width="475" height="111" viewBox="0 0 475 111" fill="none" xmlns="http://www.w3.org/2000/svg">
<rect width="475" height="111" fill="white"/>
<path d="M82.931 61.1679C83.099 61.1679 83.2478 61.2328 83.3776 61.3626L84.5913 62.6794C83.9196 63.5115 83.0913 64.1489 82.1066 64.5916C81.1295 65.0344 79.9539 65.2557 78.5799 65.2557C77.3509 65.2557 76.244 65.0458 75.2593 64.626C74.2822 64.2061 73.4463 63.6221 72.7516 62.874C72.057 62.126 71.5226 61.2328 71.1486 60.1947C70.7822 59.1565 70.599 58.0229 70.599 56.7939C70.599 55.5496 70.7974 54.4122 71.1944 53.3817C71.5913 52.3435 72.1486 51.4504 72.8661 50.7023C73.5913 49.9542 74.4539 49.374 75.4539 48.9618C76.4539 48.542 77.5608 48.3321 78.7745 48.3321C79.9806 48.3321 81.0493 48.5305 81.9806 48.9275C82.9196 49.3244 83.7173 49.8435 84.3738 50.4847L83.3432 51.916C83.2822 52.0076 83.202 52.0878 83.1028 52.1565C83.0112 52.2252 82.8814 52.2595 82.7135 52.2595C82.599 52.2595 82.4806 52.229 82.3585 52.1679C82.2364 52.0992 82.1028 52.0191 81.9577 51.9275C81.8127 51.8282 81.6448 51.7214 81.4539 51.6069C81.2631 51.4924 81.0417 51.3893 80.7898 51.2977C80.5379 51.1985 80.244 51.1183 79.9081 51.0573C79.5799 50.9885 79.1982 50.9542 78.7631 50.9542C78.0226 50.9542 77.3432 51.0878 76.7249 51.355C76.1142 51.6145 75.5875 51.9962 75.1448 52.5C74.702 52.9962 74.3585 53.6069 74.1142 54.3321C73.87 55.0496 73.7478 55.8702 73.7478 56.7939C73.7478 57.7252 73.8776 58.5534 74.1371 59.2786C74.4043 60.0038 74.7631 60.6145 75.2135 61.1107C75.6639 61.6069 76.1944 61.9885 76.8051 62.2557C77.4158 62.5153 78.0722 62.645 78.7745 62.645C79.1944 62.645 79.5722 62.6221 79.9081 62.5763C80.2516 62.5305 80.5646 62.458 80.8471 62.3588C81.1371 62.2595 81.4081 62.1336 81.66 61.9809C81.9196 61.8206 82.1753 61.626 82.4272 61.3969C82.5035 61.3282 82.5837 61.2748 82.6677 61.2366C82.7516 61.1908 82.8394 61.1679 82.931 61.1679ZM97.7136 61.1679C97.8816 61.1679 98.0304 61.2328 98.1602 61.3626L99.374 62.6794C98.7022 63.5115 97.874 64.1489 96.8892 64.5916C95.9121 65.0344 94.7365 65.2557 93.3625 65.2557C92.1335 65.2557 91.0266 65.0458 90.0419 64.626C89.0648 64.2061 88.2289 63.6221 87.5343 62.874C86.8396 62.126 86.3053 61.2328 85.9312 60.1947C85.5648 59.1565 85.3816 58.0229 85.3816 56.7939C85.3816 55.5496 85.5801 54.4122 85.977 53.3817C86.374 52.3435 86.9312 51.4504 87.6488 50.7023C88.374 49.9542 89.2365 49.374 90.2365 48.9618C91.2365 48.542 92.3434 48.3321 93.5572 48.3321C94.7633 48.3321 95.832 48.5305 96.7633 48.9275C97.7022 49.3244 98.4999 49.8435 99.1564 50.4847L98.1259 51.916C98.0648 52.0076 97.9846 52.0878 97.8854 52.1565C97.7938 52.2252 97.664 52.2595 97.4961 52.2595C97.3816 52.2595 97.2633 52.229 97.1411 52.1679C97.019 52.0992 96.8854 52.0191 96.7404 51.9275C96.5953 51.8282 96.4274 51.7214 96.2365 51.6069C96.0457 51.4924 95.8243 51.3893 95.5724 51.2977C95.3205 51.1985 95.0266 51.1183 94.6907 51.0573C94.3625 50.9885 93.9808 50.9542 93.5457 50.9542C92.8052 50.9542 92.1259 51.0878 91.5075 51.355C90.8969 51.6145 90.3701 51.9962 89.9274 52.5C89.4846 52.9962 89.1411 53.6069 88.8969 54.3321C88.6526 55.0496 88.5304 55.8702 88.5304 56.7939C88.5304 57.7252 88.6602 58.5534 88.9198 59.2786C89.1869 60.0038 89.5457 60.6145 89.9961 61.1107C90.4465 61.6069 90.977 61.9885 91.5877 62.2557C92.1984 62.5153 92.8549 62.645 93.5572 62.645C93.977 62.645 94.3549 62.6221 94.6907 62.5763C95.0343 62.5305 95.3472 62.458 95.6297 62.3588C95.9198 62.2595 96.1907 62.1336 96.4427 61.9809C96.7022 61.8206 96.9579 61.626 97.2098 61.3969C97.2862 61.3282 97.3663 61.2748 97.4503 61.2366C97.5343 61.1908 97.622 61.1679 97.7136 61.1679ZM123.514 48.5153L118.373 65.0725H115.591L111.972 53.7595C111.873 53.4847 111.782 53.1489 111.698 52.7519C111.652 52.9427 111.606 53.1221 111.56 53.2901C111.514 53.458 111.465 53.6145 111.411 53.7595L107.759 65.0725H104.965L99.835 48.5153H102.411C102.679 48.5153 102.9 48.5802 103.075 48.7099C103.259 48.8321 103.381 49 103.442 49.2137L106.259 59.1183C106.32 59.3626 106.377 59.6298 106.43 59.9198C106.491 60.2023 106.553 60.5 106.614 60.813C106.675 60.4924 106.74 60.1908 106.808 59.9084C106.885 59.626 106.965 59.3626 107.049 59.1183L110.301 49.2137C110.362 49.0382 110.48 48.8779 110.656 48.7328C110.839 48.5878 111.06 48.5153 111.32 48.5153H112.224C112.491 48.5153 112.709 48.5802 112.877 48.7099C113.045 48.8397 113.171 49.0076 113.255 49.2137L116.495 59.1183C116.656 59.5916 116.801 60.1374 116.93 60.7557C117.03 60.1527 117.14 59.6069 117.262 59.1183L120.079 49.2137C120.125 49.0229 120.24 48.8588 120.423 48.7214C120.614 48.584 120.839 48.5153 121.098 48.5153H123.514Z" fill="#E53F67"/>
<path d="M95.9624 79.5232C90.5658 83.9275 83.7421 86.2013 76.7822 85.9144C69.8224 85.6274 63.209 82.7997 58.1932 77.966C53.1774 73.1324 50.1071 66.6282 49.563 59.6837C49.0188 52.7392 51.0387 45.8361 55.2405 40.2803C59.4422 34.7245 65.5345 30.9012 72.3647 29.5338C79.1949 28.1664 86.2895 29.3496 92.3062 32.8597" stroke="#2A2A28" stroke-width="3.99712"/>
<path d="M87.8358 77.0606C83.5073 79.2016 78.5932 79.8543 73.8559 78.9174C69.1186 77.9805 64.8229 75.5064 61.6352 71.879C58.4475 68.2515 56.546 63.6734 56.2257 58.855C55.9055 54.0366 57.1843 49.2471 59.8638 45.2297C62.5434 41.2122 66.4739 38.1914 71.0455 36.6357C75.6171 35.0801 80.5744 35.0767 85.1482 36.6259" stroke="#E53F67" stroke-width="4.11903"/>
<path d="M77.8242 42.9507C75.1421 43.021 72.5316 43.8315 70.2814 45.2928C68.0312 46.7541 66.2289 48.8092 65.0739 51.2309C63.9188 53.6526 63.4559 56.3465 63.7363 59.0149C64.0168 61.6832 65.0297 64.222 66.663 66.3506C68.2963 68.4792 70.4865 70.1147 72.9913 71.0762C75.4962 72.0378 78.2181 72.2879 80.8563 71.7989" stroke="#2A2A28" stroke-width="4.21693"/>
<path d="M144.061 53.925C144.061 55.9083 144.328 57.6917 144.861 59.275C145.395 60.8417 146.153 62.175 147.136 63.275C148.136 64.3583 149.336 65.1917 150.736 65.775C152.153 66.3583 153.745 66.65 155.511 66.65C157.278 66.65 158.861 66.3583 160.261 65.775C161.678 65.1917 162.878 64.3583 163.861 63.275C164.845 62.175 165.603 60.8417 166.136 59.275C166.67 57.6917 166.936 55.9083 166.936 53.925C166.936 51.9417 166.67 50.1667 166.136 48.6C165.603 47.0167 164.845 45.675 163.861 44.575C162.878 43.475 161.678 42.6333 160.261 42.05C158.861 41.4667 157.278 41.175 155.511 41.175C153.745 41.175 152.153 41.4667 150.736 42.05C149.336 42.6333 148.136 43.475 147.136 44.575C146.153 45.675 145.395 47.0167 144.861 48.6C144.328 50.1667 144.061 51.9417 144.061 53.925ZM175.686 79.075H170.136C169.336 79.075 168.611 78.9667 167.961 78.75C167.328 78.5333 166.745 78.1333 166.211 77.55L160.911 71.7C160.061 71.9333 159.186 72.1083 158.286 72.225C157.403 72.3417 156.478 72.4 155.511 72.4C152.778 72.4 150.286 71.9417 148.036 71.025C145.786 70.0917 143.853 68.8 142.236 67.15C140.636 65.5 139.395 63.55 138.511 61.3C137.628 59.0333 137.186 56.575 137.186 53.925C137.186 51.275 137.628 48.825 138.511 46.575C139.395 44.3083 140.636 42.35 142.236 40.7C143.853 39.05 145.786 37.7667 148.036 36.85C150.286 35.9167 152.778 35.45 155.511 35.45C157.345 35.45 159.07 35.6667 160.686 36.1C162.303 36.5167 163.786 37.1167 165.136 37.9C166.486 38.6667 167.695 39.6083 168.761 40.725C169.845 41.825 170.761 43.0583 171.511 44.425C172.261 45.7917 172.828 47.275 173.211 48.875C173.611 50.475 173.811 52.1583 173.811 53.925C173.811 55.5417 173.645 57.0917 173.311 58.575C172.978 60.0417 172.495 61.4167 171.861 62.7C171.245 63.9833 170.486 65.1667 169.586 66.25C168.686 67.3167 167.661 68.2583 166.511 69.075L175.686 79.075ZM200.475 46.35V72H196.7C195.884 72 195.367 71.625 195.15 70.875L194.725 68.825C193.675 69.8917 192.517 70.7583 191.25 71.425C189.984 72.075 188.492 72.4 186.775 72.4C185.375 72.4 184.134 72.1667 183.05 71.7C181.984 71.2167 181.084 70.5417 180.35 69.675C179.617 68.8083 179.059 67.7833 178.675 66.6C178.309 65.4 178.125 64.0833 178.125 62.65V46.35H184.3V62.65C184.3 64.2167 184.659 65.4333 185.375 66.3C186.109 67.15 187.2 67.575 188.65 67.575C189.717 67.575 190.717 67.3417 191.65 66.875C192.584 66.3917 193.467 65.7333 194.3 64.9V46.35H200.475ZM220.148 61.05C218.365 61.1333 216.865 61.2917 215.648 61.525C214.431 61.7417 213.456 62.025 212.723 62.375C211.99 62.725 211.465 63.1333 211.148 63.6C210.831 64.0667 210.673 64.575 210.673 65.125C210.673 66.2083 210.99 66.9833 211.623 67.45C212.273 67.9167 213.115 68.15 214.148 68.15C215.415 68.15 216.506 67.925 217.423 67.475C218.356 67.0083 219.265 66.3083 220.148 65.375V61.05ZM205.998 49.925C208.948 47.225 212.498 45.875 216.648 45.875C218.148 45.875 219.49 46.125 220.673 46.625C221.856 47.1083 222.856 47.7917 223.673 48.675C224.49 49.5417 225.106 50.5833 225.523 51.8C225.956 53.0167 226.173 54.35 226.173 55.8V72H223.373C222.79 72 222.34 71.9167 222.023 71.75C221.706 71.5667 221.456 71.2083 221.273 70.675L220.723 68.825C220.073 69.4083 219.44 69.925 218.823 70.375C218.206 70.8083 217.565 71.175 216.898 71.475C216.231 71.775 215.515 72 214.748 72.15C213.998 72.3167 213.165 72.4 212.248 72.4C211.165 72.4 210.165 72.2583 209.248 71.975C208.331 71.675 207.54 71.2333 206.873 70.65C206.206 70.0667 205.69 69.3417 205.323 68.475C204.956 67.6083 204.773 66.6 204.773 65.45C204.773 64.8 204.881 64.1583 205.098 63.525C205.315 62.875 205.665 62.2583 206.148 61.675C206.648 61.0917 207.29 60.5417 208.073 60.025C208.856 59.5083 209.815 59.0583 210.948 58.675C212.098 58.2917 213.431 57.9833 214.948 57.75C216.465 57.5 218.198 57.35 220.148 57.3V55.8C220.148 54.0833 219.781 52.8167 219.048 52C218.315 51.1667 217.256 50.75 215.873 50.75C214.873 50.75 214.04 50.8667 213.373 51.1C212.723 51.3333 212.148 51.6 211.648 51.9C211.148 52.1833 210.69 52.4417 210.273 52.675C209.873 52.9083 209.423 53.025 208.923 53.025C208.49 53.025 208.123 52.9167 207.823 52.7C207.523 52.4667 207.281 52.2 207.098 51.9L205.998 49.925ZM238.239 34.85V72H232.064V34.85H238.239ZM250.791 46.35V72H244.591V46.35H250.791ZM251.641 38.875C251.641 39.4083 251.533 39.9083 251.316 40.375C251.099 40.8417 250.808 41.25 250.441 41.6C250.091 41.95 249.674 42.2333 249.191 42.45C248.708 42.65 248.191 42.75 247.641 42.75C247.108 42.75 246.599 42.65 246.116 42.45C245.649 42.2333 245.241 41.95 244.891 41.6C244.541 41.25 244.258 40.8417 244.041 40.375C243.841 39.9083 243.741 39.4083 243.741 38.875C243.741 38.325 243.841 37.8083 244.041 37.325C244.258 36.8417 244.541 36.425 244.891 36.075C245.241 35.725 245.649 35.45 246.116 35.25C246.599 35.0333 247.108 34.925 247.641 34.925C248.191 34.925 248.708 35.0333 249.191 35.25C249.674 35.45 250.091 35.725 250.441 36.075C250.808 36.425 251.099 36.8417 251.316 37.325C251.533 37.8083 251.641 38.325 251.641 38.875ZM258.886 72V51L256.661 50.65C256.178 50.55 255.786 50.3833 255.486 50.15C255.203 49.9 255.061 49.55 255.061 49.1V46.575H258.886V44.675C258.886 43.2083 259.103 41.8917 259.536 40.725C259.986 39.5583 260.62 38.5667 261.436 37.75C262.27 36.9333 263.278 36.3083 264.461 35.875C265.645 35.4417 266.978 35.225 268.461 35.225C269.645 35.225 270.745 35.3833 271.761 35.7L271.636 38.8C271.62 39.0333 271.553 39.225 271.436 39.375C271.32 39.5083 271.161 39.6167 270.961 39.7C270.778 39.7667 270.561 39.8167 270.311 39.85C270.061 39.8667 269.795 39.875 269.511 39.875C268.778 39.875 268.12 39.9583 267.536 40.125C266.97 40.275 266.486 40.55 266.086 40.95C265.686 41.3333 265.378 41.85 265.161 42.5C264.961 43.1333 264.861 43.925 264.861 44.875V46.575H271.536V50.975H265.061V72H258.886ZM298.306 46.35L284.331 79.05C284.148 79.4833 283.906 79.8083 283.606 80.025C283.323 80.2583 282.881 80.375 282.281 80.375H277.681L282.481 70.075L272.106 46.35H277.531C278.015 46.35 278.39 46.4667 278.656 46.7C278.94 46.9333 279.148 47.2 279.281 47.5L284.731 60.8C284.915 61.25 285.065 61.7 285.181 62.15C285.315 62.6 285.44 63.0583 285.556 63.525C285.706 63.0583 285.856 62.6 286.006 62.15C286.156 61.6833 286.323 61.225 286.506 60.775L291.656 47.5C291.79 47.1667 292.006 46.8917 292.306 46.675C292.623 46.4583 292.973 46.35 293.356 46.35H298.306ZM323.546 41.375H312.646V72H305.921V41.375H295.021V35.85H323.546V41.375ZM332.645 45.95C334.545 45.95 336.27 46.2583 337.82 46.875C339.387 47.4917 340.72 48.3667 341.82 49.5C342.937 50.6333 343.795 52.0167 344.395 53.65C344.995 55.2833 345.295 57.1083 345.295 59.125C345.295 61.1583 344.995 62.9917 344.395 64.625C343.795 66.2583 342.937 67.65 341.82 68.8C340.72 69.95 339.387 70.8333 337.82 71.45C336.27 72.0667 334.545 72.375 332.645 72.375C330.729 72.375 328.987 72.0667 327.42 71.45C325.854 70.8333 324.512 69.95 323.395 68.8C322.295 67.65 321.437 66.2583 320.82 64.625C320.22 62.9917 319.92 61.1583 319.92 59.125C319.92 57.1083 320.22 55.2833 320.82 53.65C321.437 52.0167 322.295 50.6333 323.395 49.5C324.512 48.3667 325.854 47.4917 327.42 46.875C328.987 46.2583 330.729 45.95 332.645 45.95ZM332.645 67.625C334.779 67.625 336.354 66.9083 337.37 65.475C338.404 64.0417 338.92 61.9417 338.92 59.175C338.92 56.4083 338.404 54.3 337.37 52.85C336.354 51.4 334.779 50.675 332.645 50.675C330.479 50.675 328.87 51.4083 327.82 52.875C326.787 54.325 326.27 56.425 326.27 59.175C326.27 61.925 326.787 64.025 327.82 65.475C328.87 66.9083 330.479 67.625 332.645 67.625ZM366.106 52.9C365.406 52.05 364.64 51.45 363.806 51.1C362.99 50.75 362.106 50.575 361.156 50.575C360.223 50.575 359.381 50.75 358.631 51.1C357.881 51.45 357.24 51.9833 356.706 52.7C356.173 53.4 355.765 54.3 355.481 55.4C355.198 56.4833 355.056 57.7667 355.056 59.25C355.056 60.75 355.173 62.025 355.406 63.075C355.656 64.1083 356.006 64.9583 356.456 65.625C356.906 66.275 357.456 66.75 358.106 67.05C358.756 67.3333 359.481 67.475 360.281 67.475C361.565 67.475 362.656 67.2083 363.556 66.675C364.456 66.1417 365.306 65.3833 366.106 64.4V52.9ZM372.281 34.85V72H368.506C367.69 72 367.173 71.625 366.956 70.875L366.431 68.4C365.398 69.5833 364.206 70.5417 362.856 71.275C361.523 72.0083 359.965 72.375 358.181 72.375C356.781 72.375 355.498 72.0833 354.331 71.5C353.165 70.9167 352.156 70.075 351.306 68.975C350.473 67.8583 349.823 66.4833 349.356 64.85C348.906 63.2167 348.681 61.35 348.681 59.25C348.681 57.35 348.94 55.5833 349.456 53.95C349.973 52.3167 350.715 50.9 351.681 49.7C352.648 48.5 353.806 47.5667 355.156 46.9C356.506 46.2167 358.023 45.875 359.706 45.875C361.14 45.875 362.365 46.1 363.381 46.55C364.398 47 365.306 47.6083 366.106 48.375V34.85H372.281ZM391.925 61.05C390.142 61.1333 388.642 61.2917 387.425 61.525C386.209 61.7417 385.234 62.025 384.5 62.375C383.767 62.725 383.242 63.1333 382.925 63.6C382.609 64.0667 382.45 64.575 382.45 65.125C382.45 66.2083 382.767 66.9833 383.4 67.45C384.05 67.9167 384.892 68.15 385.925 68.15C387.192 68.15 388.284 67.925 389.2 67.475C390.134 67.0083 391.042 66.3083 391.925 65.375V61.05ZM377.775 49.925C380.725 47.225 384.275 45.875 388.425 45.875C389.925 45.875 391.267 46.125 392.45 46.625C393.634 47.1083 394.634 47.7917 395.45 48.675C396.267 49.5417 396.884 50.5833 397.3 51.8C397.734 53.0167 397.95 54.35 397.95 55.8V72H395.15C394.567 72 394.117 71.9167 393.8 71.75C393.484 71.5667 393.234 71.2083 393.05 70.675L392.5 68.825C391.85 69.4083 391.217 69.925 390.6 70.375C389.984 70.8083 389.342 71.175 388.675 71.475C388.009 71.775 387.292 72 386.525 72.15C385.775 72.3167 384.942 72.4 384.025 72.4C382.942 72.4 381.942 72.2583 381.025 71.975C380.109 71.675 379.317 71.2333 378.65 70.65C377.984 70.0667 377.467 69.3417 377.1 68.475C376.734 67.6083 376.55 66.6 376.55 65.45C376.55 64.8 376.659 64.1583 376.875 63.525C377.092 62.875 377.442 62.2583 377.925 61.675C378.425 61.0917 379.067 60.5417 379.85 60.025C380.634 59.5083 381.592 59.0583 382.725 58.675C383.875 58.2917 385.209 57.9833 386.725 57.75C388.242 57.5 389.975 57.35 391.925 57.3V55.8C391.925 54.0833 391.559 52.8167 390.825 52C390.092 51.1667 389.034 50.75 387.65 50.75C386.65 50.75 385.817 50.8667 385.15 51.1C384.5 51.3333 383.925 51.6 383.425 51.9C382.925 52.1833 382.467 52.4417 382.05 52.675C381.65 52.9083 381.2 53.025 380.7 53.025C380.267 53.025 379.9 52.9167 379.6 52.7C379.3 52.4667 379.059 52.2 378.875 51.9L377.775 49.925ZM426.334 46.35L412.359 79.05C412.175 79.4833 411.934 79.8083 411.634 80.025C411.35 80.2583 410.909 80.375 410.309 80.375H405.709L410.509 70.075L400.134 46.35H405.559C406.042 46.35 406.417 46.4667 406.684 46.7C406.967 46.9333 407.175 47.2 407.309 47.5L412.759 60.8C412.942 61.25 413.092 61.7 413.209 62.15C413.342 62.6 413.467 63.0583 413.584 63.525C413.734 63.0583 413.884 62.6 414.034 62.15C414.184 61.6833 414.35 61.225 414.534 60.775L419.684 47.5C419.817 47.1667 420.034 46.8917 420.334 46.675C420.65 46.4583 421 46.35 421.384 46.35H426.334Z" fill="#2A2A28"/>
</svg>
